<svg width="538" height="357" viewBox="0 0 538 357" fill="none" xmlns="http://www.w3.org/2000/svg">
<path d="M360.697 30.181H164.113C80.2676 30.181 12.2979 98.1508 12.2979 181.996V191.343C12.2979 275.188 80.2676 343.158 164.113 343.158H360.697C444.542 343.158 512.512 275.188 512.512 191.343V181.996C512.512 98.1508 444.542 30.181 360.697 30.181Z" stroke="white" stroke-linecap="round" stroke-linejoin="round"/>
<path d="M88.8002 200.874C137.291 200.874 176.6 161.565 176.6 113.074C176.6 64.5832 137.291 25.2737 88.8002 25.2737C40.3095 25.2737 1 64.5832 1 113.074C1 161.565 40.3095 200.874 88.8002 200.874Z" fill="#020202"/>
<path d="M155.662 311.664L154.994 316.333C152.714 316.791 150.553 317.688 148.612 318.97L144.849 316.141L140.794 320.196L143.623 323.959C142.332 325.891 141.435 328.061 140.968 330.341L136.317 331.009V336.74L140.986 337.409C141.444 339.688 142.341 341.849 143.623 343.79L140.794 347.553L144.849 351.609L148.612 348.78C150.544 350.07 152.714 350.968 154.994 351.435L155.662 356.086H161.393L162.062 351.416C164.341 350.959 166.502 350.061 168.443 348.78L172.206 351.609L176.262 347.553L173.433 343.79C174.724 341.858 175.621 339.688 176.088 337.409L180.739 336.74V331.009L176.069 330.341C175.612 328.061 174.714 325.9 173.433 323.959L176.262 320.196L172.206 316.141L168.443 318.97C166.511 317.679 164.341 316.781 162.062 316.315L161.393 311.664H155.662Z" fill="#020202" stroke="white" stroke-linecap="round" stroke-linejoin="round"/>
<path d="M171.428 333.875C171.428 340.997 165.651 346.775 158.528 346.775C151.405 346.775 145.628 340.997 145.628 333.875C145.628 326.752 151.405 320.975 158.528 320.975C165.651 320.975 171.428 326.752 171.428 333.875Z" fill="#020202" stroke="white" stroke-linecap="round" stroke-linejoin="round"/>
<mask id="mask0_3076_11259" style="mask-type:luminance" maskUnits="userSpaceOnUse" x="1" y="25" width="176" height="176">
<path d="M88.8002 200.874C137.291 200.874 176.6 161.565 176.6 113.074C176.6 64.5832 137.291 25.2737 88.8002 25.2737C40.3095 25.2737 1 64.5832 1 113.074C1 161.565 40.3095 200.874 88.8002 200.874Z" fill="white"/>
</mask>
<g mask="url(#mask0_3076_11259)">
<path d="M169.743 134.369C169.743 136.924 171.821 139.011 174.376 139.011H178.651V143.397H197.328V124.71H178.651V129.737H174.376C171.821 129.737 169.743 131.815 169.743 134.379V134.369ZM179.018 125.068H196.971V143.021H179.018V125.068ZM174.376 138.654C172.014 138.654 170.1 136.731 170.1 134.379C170.1 132.016 172.014 130.103 174.376 130.103H178.651V138.654H174.376Z" fill="#020202" stroke="white" stroke-linejoin="round"/>
<path d="M154.774 111.078L146.058 138.526L146.003 138.7H117.979V143.186H144.584L149.07 143.195L159.269 112.525L154.783 111.069L154.774 111.078ZM148.933 143.021H144.831H118.152V138.892H146.141L146.26 138.526L154.893 111.307L159.031 112.653L148.933 143.021Z" fill="#020202" stroke="white" stroke-linejoin="round"/>
<path d="M144.831 143.021H118.152V138.892H146.14L146.259 138.526H117.804V143.378H148.246V143.021H144.831Z" fill="#020202" stroke="white" stroke-linejoin="round"/>
<path d="M154.655 110.849L145.866 138.526L145.811 138.7L145.747 138.883H146.131L146.25 138.517L154.884 111.298L159.022 112.644L148.924 143.012H144.822H144.438L144.383 143.186L144.319 143.369H149.189L149.226 143.25L159.48 112.406L154.646 110.84L154.655 110.849Z" fill="#020202" stroke="white" stroke-linejoin="round"/>
<path d="M159.022 112.653L148.933 143.021H144.831V143.012H118.152V138.892H146.14L146.25 138.526L154.884 111.307L159.022 112.653Z" fill="#020202" stroke="white" stroke-linejoin="round"/>
<path d="M34.655 107.7L44.2407 122.513L43.9386 122.715L34.3438 107.901L34.655 107.7Z" fill="#020202" stroke="white" stroke-linejoin="round"/>
<path d="M51.5466 143.195H197.145V152.46H51.5466V143.195Z" fill="#A2A2A0" stroke="white" stroke-linejoin="round"/>
<path d="M51.3728 143.012H197.337V152.643H51.3728V143.012ZM196.971 143.378H51.739V152.277H196.971V143.378Z" fill="#020202" stroke="white" stroke-linejoin="round"/>
<path d="M108.484 143.186C114.838 143.186 125.11 137.876 122.437 135.248C120.762 133.6 113.822 140.339 113.822 140.339L108.475 143.186H108.484Z" fill="#404040" stroke="white" stroke-miterlimit="10"/>
<path d="M113.721 140.192C114.527 139.414 120.835 133.417 122.565 135.129C123.069 135.624 123.188 136.237 122.904 136.915C121.75 139.753 113.657 143.369 108.484 143.369H107.752L113.712 140.192H113.721ZM121.714 135.166C119.864 135.166 115.625 138.856 113.959 140.476L109.262 142.985C114.325 142.664 121.512 139.387 122.574 136.777C122.794 136.228 122.712 135.779 122.309 135.386C122.162 135.239 121.952 135.175 121.705 135.175L121.714 135.166Z" fill="#404040" stroke="white" stroke-miterlimit="10"/>
<path d="M130.393 120.06C130.256 120.06 130.118 120.115 130.009 120.215C128.416 121.726 124.387 125.333 120.734 126.798L123.755 129.709C129.459 125.901 130.952 123.41 131.19 121.991C131.299 121.323 131.171 120.746 130.814 120.27C130.723 120.16 130.594 120.078 130.439 120.069H130.393V120.06Z" fill="#404040" stroke="white" stroke-miterlimit="10"/>
<path d="M130.063 133.243L124.781 128.775C124.47 128.51 124.012 128.83 124.149 129.206L125.934 134.434C127.802 135.734 129.185 135.23 129.981 134.644C130.439 134.305 130.494 133.628 130.073 133.234L130.063 133.243Z" fill="#404040" stroke="white" stroke-miterlimit="10"/>
<path d="M108.484 128.803C112.925 128.803 116.266 128.345 120.066 126.688C121.869 125.901 123.966 126.77 124.726 128.583L127.72 135.706C127.976 136.31 127.564 136.997 126.914 137.052C125.715 137.143 123.737 136.2 121.622 130.533L119.443 131.961C119.443 131.961 118.976 143.204 108.475 143.204V128.821L108.484 128.803Z" fill="#404040" stroke="white" stroke-miterlimit="10"/>
<path d="M92.8103 128.812H108.512V143.195H92.8103V128.812Z" fill="#020202" stroke="white" stroke-linejoin="round"/>
<path d="M30.2606 248.381C23.3666 253.032 15.5662 258.297 15.5662 269.649V269.833H67.7794V269.649C67.7794 258.297 59.9698 253.023 53.085 248.381C47.3079 244.49 41.8605 240.81 41.8605 234.154V191.746H41.4942V234.154C41.4942 240.801 36.0376 244.481 30.2697 248.381H30.2606ZM67.4223 269.466H15.9324C16.0148 258.425 23.687 253.252 30.462 248.684C35.6989 245.15 40.6703 241.799 41.6682 236.241C42.6661 241.799 47.6375 245.15 52.8744 248.684C59.6494 253.252 67.3216 258.434 67.404 269.466H67.4223Z" fill="#020202" stroke="white" stroke-linejoin="round"/>
<path d="M139.338 246.578L120.386 177.619C116.303 162.76 102.799 152.46 87.3901 152.46H74.1514L102.03 208.006L110.553 246.578H139.347H139.338Z" fill="#020202" stroke="white" stroke-miterlimit="10"/>
<path d="M110.407 246.761L101.856 208.07L73.9867 152.543L73.8494 152.277H87.381C102.817 152.277 116.459 162.678 120.551 177.565L139.503 246.523L139.567 246.752H110.389L110.407 246.761ZM139.1 246.395L120.212 177.665C116.166 162.934 102.671 152.644 87.3994 152.644H74.4536L102.194 207.933V207.951L110.7 246.404H139.109L139.1 246.395Z" fill="#020202" stroke="white" stroke-miterlimit="10"/>
<path d="M9.67017 152.46H88.077C104.309 152.46 116.587 167.173 113.685 183.158L102.158 246.578H72.3846L84.131 184.459H27.8802C17.8276 184.459 9.67017 176.301 9.67017 166.239V152.46Z" fill="#020202" stroke="white" stroke-miterlimit="10"/>
<path d="M72.174 246.77L83.9204 184.651H27.8802C17.7452 184.651 9.48706 176.393 9.48706 166.248V152.286H88.077C95.8682 152.286 103.211 155.72 108.201 161.707C113.199 167.695 115.259 175.532 113.868 183.204L102.341 246.624L102.314 246.77H72.1649H72.174ZM102.002 246.395L113.501 183.122C114.875 175.56 112.842 167.832 107.917 161.927C102.991 156.022 95.7583 152.634 88.077 152.634H9.85328V166.239C9.85328 176.182 17.9375 184.275 27.8802 184.275H84.3507L72.6044 246.395H102.011H102.002Z" fill="#020202" stroke="white" stroke-linejoin="round"/>
<path d="M9.48706 143.012H44.6346V152.643H9.48706V143.012Z" fill="#020202" stroke="white" stroke-linejoin="round"/>
<path d="M22.7075 103.378C27.917 92.6299 39.9197 81.3596 42.5381 75.9945C46.9602 66.9215 45.065 58.9838 50.0272 56.7956C54.9071 54.6533 58.9538 57.7112 61.8926 59.7254C64.8315 61.7396 69.9494 67.0405 67.569 73.6233C67.4957 73.8155 67.4316 74.0169 67.3676 74.2092C67.6697 75.3994 68.0267 77.0565 68.2099 78.6313C68.3197 79.6017 67.2211 80.2426 66.4246 79.6567L66.1224 79.4369C65.3442 83.7858 64.9505 87.4388 61.8926 88.6015C57.5164 90.2586 52.0323 82.5772 52.0323 82.5772L48.7455 90.0755C48.7455 90.0755 50.9428 91.9066 56.4269 100.677C61.9109 109.448 70.8649 124.079 70.8649 124.079H89.8257C93.1766 124.079 95.8958 126.798 95.8958 130.158V143.213H68.5394C61.9842 143.213 55.8501 139.963 52.1696 134.534L44.0854 122.623C44.0854 122.623 52.2154 137.665 44.4516 143.213H11.8401C11.8401 128.656 17.4981 114.145 22.7075 103.387V103.378Z" fill="#404040" stroke="white" stroke-miterlimit="10"/>
<path d="M65.234 82.3758C62.0754 81.4877 62.1944 78.7777 62.1944 78.6587L61.8373 78.6404C61.8373 78.6404 61.6908 81.7532 65.1424 82.7237" fill="#404040"/>
<path d="M65.234 82.3758C62.0754 81.4877 62.1944 78.7777 62.1944 78.6587L61.8373 78.6404C61.8373 78.6404 61.6908 81.7532 65.1424 82.7237" stroke="white" stroke-miterlimit="10"/>
<path d="M48.6081 90.1946C45.7241 87.3747 40.6246 83.8865 37.4293 83.1724L37.1455 83.1083L40.6062 78.7229L40.7344 78.7778C40.8077 78.8053 47.4911 81.7076 50.8786 85.4063C51.9772 86.6057 52.4442 87.8142 52.2794 88.9861C52.1604 89.7918 51.6293 90.4418 50.8511 90.7073C50.6131 90.7897 50.3751 90.8263 50.137 90.8263C49.5785 90.8263 49.0292 90.6066 48.6081 90.2038V90.1946Z" fill="#020202" stroke="white" stroke-linejoin="round"/>
<path d="M4.5614 107.013V167.796C4.5614 181.016 15.2732 191.737 28.4936 191.737H70.5077C72.5219 191.737 74.1516 190.107 74.1516 188.093C74.1516 186.079 72.5219 184.449 70.5077 184.449H30.1141C20.0157 184.449 11.8399 176.265 11.8399 166.166V107.004C11.8399 104.99 10.2103 103.36 8.19609 103.36C6.18191 103.36 4.55225 104.99 4.55225 107.004L4.5614 107.013Z" fill="#020202"/>
<path d="M4.36914 167.805V107.022C4.36914 104.907 6.0812 103.195 8.1961 103.195C10.3018 103.195 12.0231 104.907 12.0231 107.022V166.184C12.0231 176.164 20.1347 184.285 30.1141 184.285H70.5077C72.6134 184.285 74.3347 185.997 74.3347 188.111C74.3347 190.226 72.6226 191.938 70.5077 191.938H28.4936C15.2 191.938 4.3783 181.117 4.3783 167.805H4.36914ZM70.5169 184.66H30.1233C19.9425 184.66 11.666 176.374 11.666 166.193V107.031C11.666 105.127 10.1096 103.571 8.20525 103.571C6.30093 103.571 4.74451 105.127 4.74451 107.031V167.814C4.74451 180.915 15.3922 191.572 28.4936 191.572H70.5077C72.412 191.572 73.9684 190.016 73.9684 188.111C73.9684 186.207 72.412 184.651 70.5077 184.651H70.5169V184.66Z" fill="#020202" stroke="white" stroke-linejoin="round"/>
<path d="M52.4992 79.0799C54.5369 79.0799 56.1888 77.428 56.1888 75.3903C56.1888 73.3526 54.5369 71.7007 52.4992 71.7007C50.4615 71.7007 48.8096 73.3526 48.8096 75.3903C48.8096 77.428 50.4615 79.0799 52.4992 79.0799Z" fill="#404040" stroke="white" stroke-miterlimit="10"/>
<path d="M69.3358 70.7301L57.6535 67.0405L58.1754 66.2623C56.2344 68.5695 52.087 72.5978 46.7586 72.5978C45.6233 72.5978 44.4331 72.4147 43.1971 71.9936L43.0232 71.9295L43.0873 71.7555V71.7738C44.0486 69.1005 44.5613 66.5827 45.0008 64.3671C45.8156 60.293 46.4656 57.0886 49.432 55.8068C54.2935 53.7194 58.3585 56.466 61.334 58.4619L61.7551 58.7457C62.0389 58.938 62.5242 59.2767 63.1101 59.762C71.5056 61.6754 69.345 70.7301 69.345 70.7301H69.3358Z" fill="#020202" stroke="white" stroke-miterlimit="10"/>
<path d="M40.2491 74.6212C43.4751 74.6212 46.0902 72.0061 46.0902 68.7801C46.0902 65.5541 43.4751 62.939 40.2491 62.939C37.0231 62.939 34.408 65.5541 34.408 68.7801C34.408 72.0061 37.0231 74.6212 40.2491 74.6212Z" fill="#020202" stroke="white" stroke-miterlimit="10"/>
<path d="M57.3514 70.2633C57.3514 70.2633 55.0259 66.418 52.6913 67.5533C49.7341 68.9998 51.4919 72.7078 52.6913 73.3578" fill="#404040"/>
<path d="M57.3514 70.2633C57.3514 70.2633 55.0259 66.418 52.6913 67.5533C49.7341 68.9998 51.4919 72.7078 52.6913 73.3578" stroke="white" stroke-miterlimit="10"/>
</g>
<path d="M88.8002 200.874C137.291 200.874 176.6 161.565 176.6 113.074C176.6 64.5832 137.291 25.2737 88.8002 25.2737C40.3095 25.2737 1 64.5832 1 113.074C1 161.565 40.3095 200.874 88.8002 200.874Z" stroke="white" stroke-miterlimit="10"/>
<path d="M89.4595 66.6377C91.7025 68.9632 93.0942 72.0943 93.323 75.317C93.4146 76.5988 93.323 77.9171 93.7533 79.1257C94.5316 81.3229 96.8296 82.6413 99.1093 83.0991C101.389 83.5569 103.751 83.328 106.067 83.447C108.384 83.566 110.846 84.1153 112.467 85.7816C115.296 88.6839 114.692 93.9299 117.823 96.4934C120.24 98.471 123.737 97.9675 126.859 98.1231C129.542 98.2604 132.188 98.9746 134.577 100.211C135.85 100.87 137.086 101.712 137.846 102.93C138.844 104.504 138.917 106.473 139.274 108.304C139.677 110.382 140.492 112.378 141.654 114.145C142.057 114.749 142.506 115.344 143.11 115.747C144.456 116.635 146.205 116.406 147.816 116.443C149.427 116.48 151.332 117.075 151.734 118.64" stroke="white" stroke-linecap="round" stroke-linejoin="round"/>
<path d="M105.143 101.447L104.474 103.827C104.227 104.715 103.531 105.411 102.652 105.658L100.281 106.326L102.652 106.995C103.54 107.242 104.227 107.938 104.474 108.826L105.143 111.206L105.811 108.826C106.058 107.938 106.754 107.242 107.633 106.995L110.004 106.326L107.633 105.658C106.745 105.411 106.058 104.715 105.811 103.827L105.143 101.447Z" fill="#E3E3DF" stroke="white" stroke-linejoin="round"/>
<path d="M131.629 114.108L130.961 116.489C130.714 117.377 130.018 118.073 129.139 118.32L126.768 118.988L129.139 119.657C130.027 119.904 130.714 120.6 130.961 121.488L131.629 123.868L132.297 121.488C132.545 120.6 133.24 119.904 134.119 119.657L136.491 118.988L134.119 118.32C133.231 118.073 132.545 117.377 132.297 116.489L131.629 114.108Z" fill="#E3E3DF" stroke="white" stroke-linejoin="round"/>
<path d="M94.2751 97.2533L93.9455 98.416C93.8264 98.8463 93.4877 99.1851 93.0574 99.3133L91.9038 99.6429L93.0574 99.9724C93.4877 100.091 93.8264 100.43 93.9455 100.87L94.2751 102.032L94.6046 100.87C94.7237 100.439 95.0624 100.101 95.4927 99.9724L96.6463 99.6429L95.4927 99.3133C95.0624 99.1942 94.7237 98.8555 94.6046 98.416L94.2751 97.2533Z" fill="#E3E3DF" stroke="white" stroke-linejoin="round"/>
<path d="M100.235 113.458L99.8507 114.841C99.7043 115.363 99.3014 115.766 98.7887 115.912L97.4062 116.306L98.7887 116.699C99.3014 116.846 99.7043 117.249 99.8507 117.771L100.235 119.153L100.62 117.771C100.766 117.249 101.169 116.846 101.682 116.699L103.064 116.306L101.682 115.912C101.169 115.766 100.766 115.363 100.62 114.841L100.235 113.458Z" fill="#E3E3DF" stroke="white" stroke-linejoin="round"/>
<path d="M114.591 110.007L113.694 113.22C113.355 114.42 112.43 115.354 111.231 115.692L108.036 116.599L111.231 117.505C112.421 117.844 113.355 118.778 113.694 119.977L114.591 123.191L115.488 119.977C115.827 118.778 116.752 117.844 117.951 117.505L121.146 116.599L117.951 115.692C116.761 115.354 115.827 114.42 115.488 113.22L114.591 110.007Z" fill="#E3E3DF" stroke="white" stroke-linejoin="round"/>
<path d="M392.476 96.4935C427.33 83.8407 465.847 101.831 478.5 136.686" stroke="white" stroke-miterlimit="10"/>
<path d="M279.068 224.669V94.9921" stroke="white" stroke-linecap="round" stroke-linejoin="round"/>
<path d="M308.841 107.388H343.833C363.16 107.388 378.825 91.7236 378.825 72.3966C378.825 53.0695 363.16 37.4046 343.833 37.4046C337.113 37.4046 330.53 39.3456 324.881 42.9803C317.923 24.3307 300.116 11.9618 280.212 11.9526C260.299 11.9801 242.501 24.3674 235.552 43.026C229.903 39.3639 223.32 37.4138 216.591 37.4046C197.264 37.4046 181.599 53.0695 181.599 72.3966C181.599 91.7236 197.264 107.388 216.591 107.388H251.583" fill="#020202"/>
<path d="M308.841 107.388H343.833C363.16 107.388 378.825 91.7236 378.825 72.3966C378.825 53.0695 363.16 37.4046 343.833 37.4046C337.113 37.4046 330.53 39.3456 324.881 42.9803C317.923 24.3307 300.116 11.9618 280.212 11.9526C260.299 11.9801 242.501 24.3674 235.552 43.026C229.903 39.3639 223.32 37.4138 216.591 37.4046C197.264 37.4046 181.599 53.0695 181.599 72.3966C181.599 91.7236 197.264 107.388 216.591 107.388H251.583" stroke="white" stroke-linejoin="round"/>
<path d="M247.253 94.9921H310.874" stroke="white" stroke-linecap="round" stroke-linejoin="round"/>
<path d="M263.156 94.9921V139.524L233.327 164.143" stroke="white" stroke-linecap="round" stroke-linejoin="round"/>
<path d="M248.26 196.882C248.26 220.604 229.024 239.84 205.303 239.84C181.581 239.84 162.345 220.604 162.345 196.882C162.345 173.161 181.581 153.925 205.303 153.925C229.024 153.925 248.26 173.161 248.26 196.882Z" stroke="white" stroke-linecap="round" stroke-linejoin="round"/>
<path d="M125.614 247.374V231.215L162.712 204.362" stroke="white" stroke-linecap="round" stroke-linejoin="round"/>
<path d="M186.8 179.194C186.8 181.84 185.371 183.992 183.604 183.992C181.837 183.992 180.409 181.84 180.409 179.194C180.409 176.548 181.837 174.397 183.604 174.397C185.371 174.397 186.8 176.548 186.8 179.194Z" stroke="white" stroke-linecap="round" stroke-linejoin="round"/>
<path d="M190.801 174.397V183.992" stroke="white" stroke-linecap="round" stroke-linejoin="round"/>
<path d="M186.8 191.984C186.8 194.63 185.371 196.782 183.604 196.782C181.837 196.782 180.409 194.63 180.409 191.984C180.409 189.338 181.837 187.187 183.604 187.187C185.371 187.187 186.8 189.338 186.8 191.984Z" stroke="white" stroke-linecap="round" stroke-linejoin="round"/>
<path d="M190.801 187.187V196.782" stroke="white" stroke-linecap="round" stroke-linejoin="round"/>
<path d="M186.8 206.367C186.8 209.013 185.371 211.165 183.604 211.165C181.837 211.165 180.409 209.013 180.409 206.367C180.409 203.721 181.837 201.57 183.604 201.57C185.371 201.57 186.8 203.721 186.8 206.367Z" stroke="white" stroke-linecap="round" stroke-linejoin="round"/>
<path d="M190.801 201.57V211.165" stroke="white" stroke-linecap="round" stroke-linejoin="round"/>
<path d="M186.8 219.157C186.8 221.803 185.371 223.955 183.604 223.955C181.837 223.955 180.409 221.803 180.409 219.157C180.409 216.511 181.837 214.36 183.604 214.36C185.371 214.36 186.8 216.511 186.8 219.157Z" stroke="white" stroke-linecap="round" stroke-linejoin="round"/>
<path d="M190.801 214.36V223.955" stroke="white" stroke-linecap="round" stroke-linejoin="round"/>
<path d="M195.598 174.397V183.992" stroke="white" stroke-linecap="round" stroke-linejoin="round"/>
<path d="M205.989 179.194C205.989 181.84 204.561 183.992 202.794 183.992C201.027 183.992 199.599 181.84 199.599 179.194C199.599 176.548 201.027 174.397 202.794 174.397C204.561 174.397 205.989 176.548 205.989 179.194Z" stroke="white" stroke-linecap="round" stroke-linejoin="round"/>
<path d="M209.981 174.397V183.992" stroke="white" stroke-linecap="round" stroke-linejoin="round"/>
<path d="M220.372 179.194C220.372 181.84 218.944 183.992 217.177 183.992C215.41 183.992 213.982 181.84 213.982 179.194C213.982 176.548 215.41 174.397 217.177 174.397C218.944 174.397 220.372 176.548 220.372 179.194Z" stroke="white" stroke-linecap="round" stroke-linejoin="round"/>
<path d="M224.373 174.397V183.992" stroke="white" stroke-linecap="round" stroke-linejoin="round"/>
<path d="M229.162 174.397V183.992" stroke="white" stroke-linecap="round" stroke-linejoin="round"/>
<path d="M201.192 191.984C201.192 194.63 199.764 196.782 197.997 196.782C196.23 196.782 194.802 194.63 194.802 191.984C194.802 189.338 196.23 187.187 197.997 187.187C199.764 187.187 201.192 189.338 201.192 191.984Z" stroke="white" stroke-linecap="round" stroke-linejoin="round"/>
<path d="M205.184 187.187V196.782" stroke="white" stroke-linecap="round" stroke-linejoin="round"/>
<path d="M215.575 191.984C215.575 194.63 214.147 196.782 212.38 196.782C210.613 196.782 209.185 194.63 209.185 191.984C209.185 189.338 210.613 187.187 212.38 187.187C214.147 187.187 215.575 189.338 215.575 191.984Z" stroke="white" stroke-linecap="round" stroke-linejoin="round"/>
<path d="M219.576 187.187V196.782" stroke="white" stroke-linecap="round" stroke-linejoin="round"/>
<path d="M229.967 191.984C229.967 194.63 228.539 196.782 226.772 196.782C225.005 196.782 223.577 194.63 223.577 191.984C223.577 189.338 225.005 187.187 226.772 187.187C228.539 187.187 229.967 189.338 229.967 191.984Z" stroke="white" stroke-linecap="round" stroke-linejoin="round"/>
<path d="M195.598 201.57V211.165" stroke="white" stroke-linecap="round" stroke-linejoin="round"/>
<path d="M205.989 206.367C205.989 209.013 204.561 211.165 202.794 211.165C201.027 211.165 199.599 209.013 199.599 206.367C199.599 203.721 201.027 201.57 202.794 201.57C204.561 201.57 205.989 203.721 205.989 206.367Z" stroke="white" stroke-linecap="round" stroke-linejoin="round"/>
<path d="M209.981 201.57V211.165" stroke="white" stroke-linecap="round" stroke-linejoin="round"/>
<path d="M220.372 206.367C220.372 209.013 218.944 211.165 217.177 211.165C215.41 211.165 213.982 209.013 213.982 206.367C213.982 203.721 215.41 201.57 217.177 201.57C218.944 201.57 220.372 203.721 220.372 206.367Z" stroke="white" stroke-linecap="round" stroke-linejoin="round"/>
<path d="M224.373 201.57V211.165" stroke="white" stroke-linecap="round" stroke-linejoin="round"/>
<path d="M229.162 201.57V211.165" stroke="white" stroke-linecap="round" stroke-linejoin="round"/>
<path d="M201.192 219.157C201.192 221.803 199.764 223.955 197.997 223.955C196.23 223.955 194.802 221.803 194.802 219.157C194.802 216.511 196.23 214.36 197.997 214.36C199.764 214.36 201.192 216.511 201.192 219.157Z" stroke="white" stroke-linecap="round" stroke-linejoin="round"/>
<path d="M205.184 214.36V223.955" stroke="white" stroke-linecap="round" stroke-linejoin="round"/>
<path d="M219.576 214.36V223.955" stroke="white" stroke-linecap="round" stroke-linejoin="round"/>
<path d="M229.967 219.157C229.967 221.803 228.539 223.955 226.772 223.955C225.005 223.955 223.577 221.803 223.577 219.157C223.577 216.511 225.005 214.36 226.772 214.36C228.539 214.36 229.967 216.511 229.967 219.157Z" stroke="white" stroke-linecap="round" stroke-linejoin="round"/>
<path d="M214.779 214.36V223.955" stroke="white" stroke-linecap="round" stroke-linejoin="round"/>
<path d="M209.981 214.36V223.955" stroke="white" stroke-linecap="round" stroke-linejoin="round"/>
<path d="M347.211 27.2695C338.449 23.406 322.995 8.81227 319.772 5.379C319.077 4.62825 317.868 4.62825 317.209 5.41562C315.057 7.98828 313.245 15.0105 333.194 30.0253L347.202 27.2787L347.211 27.2695Z" fill="#404040" stroke="white" stroke-miterlimit="10"/>
<path d="M361.091 62.8383V40.5724C361.091 30.0162 342.506 26.8393 333.414 22.8109C329.111 20.9066 324.103 23.0032 322.272 27.3978L315.113 44.6648C314.499 46.1297 315.479 47.796 317.044 47.915C319.901 48.1439 324.634 45.8459 329.688 32.0945C332.966 34.2826 337.113 35.9306 339.612 38.9793C341.718 41.5428 344.172 46.4684 340.409 48.7848C335.163 52.0075 328.507 40.0505 323.178 46.679C316.861 54.5252 345.655 65.8413 362.519 64.001" fill="#404040"/>
<path d="M361.091 62.8383V40.5724C361.091 30.0162 342.506 26.8393 333.414 22.8109C329.111 20.9066 324.103 23.0032 322.272 27.3978L315.113 44.6648C314.499 46.1297 315.479 47.796 317.044 47.915C319.901 48.1439 324.634 45.8459 329.688 32.0945C332.966 34.2826 337.113 35.9306 339.612 38.9793C341.718 41.5428 344.172 46.4684 340.409 48.7848C335.163 52.0075 328.507 40.0505 323.178 46.679C316.861 54.5252 345.655 65.8413 362.519 64.001" stroke="white" stroke-miterlimit="10"/>
<path d="M361.091 62.8383V40.5724C361.091 30.0162 342.506 26.8393 333.414 22.8109C329.111 20.9066 324.103 23.0032 322.272 27.3978L315.113 44.6648C314.499 46.1297 315.479 47.796 317.044 47.915C319.901 48.1439 324.634 45.8459 329.688 32.0945C332.966 34.2826 337.113 35.9306 339.612 38.9793C341.718 41.5428 344.172 46.4684 340.409 48.7848C335.163 52.0075 328.507 40.0505 323.178 46.679C316.861 54.5252 345.655 65.8413 362.519 64.001" stroke="white" stroke-miterlimit="10"/>
<path d="M360.972 64.6785C366.694 65.0264 372.444 65.0081 378.23 65.0081C372.325 53.5272 364.771 42.7605 357.374 32.3416C354.444 28.2125 351.102 24.6419 347.944 20.7326C345.609 17.8395 343.311 14.5985 341.187 11.4307C339.081 8.28124 337.864 5.48885 336.417 2.06473C336.014 1.12173 334.888 0.709733 334 1.22244C331.711 2.54081 328.672 6.54172 334.137 18.4437C327.692 13.1885 321.649 7.39317 319.773 5.37898C319.077 4.62824 317.868 4.62824 317.209 5.41561C315.396 7.58543 313.822 12.9322 325.376 23.5708C324.039 24.4771 322.931 25.7864 322.263 27.3977L315.103 44.6648C314.49 46.1297 315.47 47.7959 317.035 47.915C319.892 48.1438 324.625 45.8458 329.679 32.0944C332.956 34.2826 337.104 35.9305 339.603 38.9793C341.709 41.5428 344.163 46.4684 340.4 48.7847C335.154 52.0074 328.498 40.0505 323.169 46.679C316.733 54.6625 341.517 61.6664 345.481 62.5727C350.626 63.7446 355.781 64.358 360.972 64.6693V64.6785Z" fill="#020202" stroke="white" stroke-miterlimit="10"/>
<path d="M343.503 25.2737C340.528 23.4426 337.204 20.934 333.982 18.3064L343.503 25.2737Z" fill="#404040" stroke="white" stroke-miterlimit="10"/>
<path d="M343.503 25.2737C340.528 23.4426 337.204 20.934 333.982 18.3064" stroke="white" stroke-miterlimit="10"/>
<path d="M343.229 28.4323C339.31 26.4731 336.252 24.0652 333.405 22.8109C329.102 20.9066 324.094 23.0032 322.263 27.3978" fill="#020202"/>
<path d="M343.229 28.4323C339.31 26.4731 336.252 24.0652 333.405 22.8109C329.102 20.9066 324.094 23.0032 322.263 27.3978" stroke="white" stroke-miterlimit="10"/>
<path d="M343.229 28.4323C339.31 26.4731 336.252 24.0652 333.405 22.8109C329.102 20.9066 324.094 23.0032 322.263 27.3978" stroke="white" stroke-miterlimit="10"/>
<path d="M280.67 26.8942C276.733 30.3183 270.718 32.543 263.943 32.6987V50.4876C263.943 54.6808 265.637 58.7 268.64 61.6297L280.642 70.5837L292.672 61.6297C295.685 58.7 297.388 54.6808 297.388 50.4785V32.6987C290.613 32.5522 284.607 30.3183 280.661 26.8942H280.67ZM282.446 47.6403V55.5322H278.884V47.6403C278.289 47.1367 277.914 46.386 277.914 45.5437C277.914 44.0239 279.15 42.7971 280.661 42.7971C282.171 42.7971 283.407 44.0331 283.407 45.5437C283.407 46.386 283.032 47.1367 282.437 47.6403H282.446Z" fill="#202020" stroke="white" stroke-linejoin="round"/>
<path d="M321.604 30.6021H320.487C316.806 30.6021 313.812 33.5867 313.812 37.2672V42.7787H285.449V48.2811H289.01V55.523H292.572V48.2811H296.133V55.523H299.695V48.2811H313.822V53.7927C313.822 57.4731 316.806 60.4578 320.496 60.4578H321.613C325.293 60.4578 328.287 57.4731 328.287 53.7927V37.2672C328.287 33.5867 325.302 30.6021 321.613 30.6021H321.604Z" fill="#A100FF" stroke="white" stroke-miterlimit="10"/>
<path d="M321.045 48.2811C322.565 48.2811 323.792 47.0451 323.792 45.5345C323.792 44.0238 322.556 42.7878 321.045 42.7878C319.535 42.7878 318.299 44.0238 318.299 45.5345C318.299 47.0451 319.535 48.2811 321.045 48.2811Z" fill="#202020" stroke="white" stroke-miterlimit="10"/>
<path d="M339.612 38.9977C341.718 41.5612 344.172 46.4868 340.409 48.8031C335.163 52.0258 328.507 40.0689 323.178 46.6974C316.861 54.5435 345.655 65.8596 362.519 64.0194L361.1 62.8475" fill="#020202"/>
<path d="M339.612 38.9977C341.718 41.5612 344.172 46.4868 340.409 48.8031C335.163 52.0258 328.507 40.0689 323.178 46.6974C316.861 54.5435 345.655 65.8596 362.519 64.0194L361.1 62.8475" stroke="white" stroke-miterlimit="10"/>
<path d="M339.612 38.9977C341.718 41.5612 344.172 46.4868 340.409 48.8031C335.163 52.0258 328.507 40.0689 323.178 46.6974C316.861 54.5435 345.655 65.8596 362.519 64.0194L361.1 62.8475" stroke="white" stroke-miterlimit="10"/>
<path d="M386.964 148.945L337.095 65.2552L373.57 51.1101L420.592 121.341L386.964 148.945Z" fill="#202020" stroke="white" stroke-miterlimit="10"/>
<path d="M341.782 175.724C341.782 180.998 337.506 185.264 332.242 185.264C326.978 185.264 322.702 180.989 322.702 175.724C322.702 170.46 326.978 166.184 332.242 166.184C337.506 166.184 341.782 170.46 341.782 175.724Z" stroke="white" stroke-linecap="round" stroke-linejoin="round"/>
<path d="M297.241 96.2004V140.732L324.726 168.217" stroke="white" stroke-linecap="round" stroke-linejoin="round"/>
<path d="M135.548 270.437C135.548 275.921 131.107 280.361 125.623 280.361C120.139 280.361 115.699 275.921 115.699 270.437C115.699 264.953 120.139 260.512 125.623 260.512C131.107 260.512 135.548 264.953 135.548 270.437Z" fill="#020202" stroke="white" stroke-linejoin="round"/>
<path d="M142.002 254.058C151.048 263.103 151.048 277.77 142.002 286.816V254.058ZM109.244 286.816C100.199 277.77 100.199 263.103 109.244 254.058V286.816Z" fill="#020202"/>
<path d="M142.002 254.058C151.048 263.103 151.048 277.77 142.002 286.816M109.244 286.816C100.199 277.77 100.199 263.103 109.244 254.058" stroke="white" stroke-linejoin="round"/>
<path d="M151.359 244.701C165.577 258.919 165.577 281.964 151.359 296.182V244.701ZM99.8781 296.182C85.6598 281.964 85.6598 258.919 99.8781 244.701V296.182Z" fill="#020202"/>
<path d="M151.359 244.701C165.577 258.919 165.577 281.964 151.359 296.182M99.8781 296.182C85.6598 281.964 85.6598 258.919 99.8781 244.701" stroke="white" stroke-linejoin="round"/>
<path d="M537.488 195.344C537.488 220.284 519.369 240.975 495.584 244.994L495.73 245.012L339.402 247.109C336.06 247.109 332.792 246.779 329.624 246.157C306.488 241.607 289.047 221.218 289.047 196.754C289.047 168.949 311.597 146.4 339.402 146.4C345.38 146.4 351.112 147.443 356.431 149.348C362.876 123.465 386.268 104.285 414.146 104.285C442.025 104.285 464.3 122.559 471.377 147.507C476.339 145.878 481.631 144.99 487.133 144.99C514.938 144.99 537.488 167.539 537.488 195.344Z" fill="#020202" stroke="white" stroke-linejoin="round"/>
<path d="M337.855 225.429H275.369C271.533 225.429 268.173 228.093 267.202 231.92L242.428 329.544C241.027 335.046 245.065 340.43 250.594 340.43H313.08C316.916 340.43 320.276 337.766 321.247 333.939L346.021 236.315C347.422 230.812 343.384 225.429 337.855 225.429Z" fill="#202020" stroke="white" stroke-miterlimit="10"/>
<path d="M267.193 231.92L266.25 235.656H346.14C347.074 230.391 343.156 225.429 337.845 225.429H275.36C271.524 225.429 268.164 228.093 267.193 231.92Z" fill="#020202" stroke="white" stroke-miterlimit="10"/>
<path d="M242.208 330.798C241.659 335.843 245.476 340.439 250.594 340.439H313.08C316.916 340.439 320.276 337.775 321.246 333.948L322.052 330.798H242.217H242.208Z" fill="#020202" stroke="white" stroke-miterlimit="10"/>
<path d="M290.356 254.296L289.496 260.32C286.557 260.906 283.755 262.069 281.265 263.726L276.404 260.082L271.176 265.31L274.82 270.171C273.153 272.671 271.991 275.463 271.396 278.411L265.39 279.272V286.669L271.414 287.53C272 290.469 273.163 293.27 274.82 295.761L271.176 300.622L276.404 305.85L281.265 302.206C283.765 303.872 286.557 305.035 289.505 305.63L290.366 311.636H297.763L298.624 305.612C301.563 305.026 304.364 303.863 306.854 302.206L311.716 305.85L316.944 300.622L313.3 295.761C314.966 293.261 316.129 290.469 316.724 287.521L322.73 286.66V279.263L316.706 278.402C316.12 275.463 314.957 272.662 313.3 270.171L316.944 265.31L311.716 260.082L306.854 263.726C304.355 262.06 301.563 260.897 298.615 260.302L297.754 254.296H290.356Z" fill="#202020" stroke="white" stroke-miterlimit="10"/>
<path d="M310.709 282.971C310.709 292.163 303.256 299.624 294.055 299.624C284.854 299.624 277.401 292.172 277.401 282.971C277.401 273.769 284.854 266.317 294.055 266.317C303.256 266.317 310.709 273.769 310.709 282.971Z" fill="#202020" stroke="white" stroke-miterlimit="10"/>
<path d="M288.507 277.413L282.959 282.961L288.507 288.51" fill="#202020"/>
<path d="M288.507 277.413L282.959 282.961L288.507 288.51" stroke="white" stroke-miterlimit="10"/>
<path d="M299.612 277.413L305.16 282.961L299.612 288.51" fill="#202020"/>
<path d="M299.612 277.413L305.16 282.961L299.612 288.51" stroke="white" stroke-miterlimit="10"/>
<path d="M295.904 274.639L292.206 291.293L295.904 274.639Z" fill="#202020"/>
<path d="M295.904 274.639L292.206 291.293" stroke="white" stroke-miterlimit="10"/>
<path d="M463.567 224.669H391.615C391.423 224.669 391.276 224.495 391.276 224.284V165.562C391.276 165.351 391.432 165.177 391.615 165.177H463.567C463.759 165.177 463.906 165.351 463.906 165.562V224.284C463.906 224.495 463.75 224.669 463.567 224.669Z" fill="#020202" stroke="white" stroke-miterlimit="10"/>
<path d="M424.721 205.241H417.25V215.285H424.721V205.241Z" fill="#A2A2A0" stroke="white" stroke-miterlimit="10"/>
<path d="M437.932 197.807H430.461V215.294H437.932V197.807Z" fill="#020202" stroke="white" stroke-linejoin="round"/>
<path d="M451.143 189.485H443.672V215.294H451.143V189.485Z" fill="#404040" stroke="white" stroke-miterlimit="10"/>
<path d="M452.041 176.96C451.995 176.759 451.802 176.64 451.629 176.686C447.399 177.931 445.027 180.833 442.51 183.909C441.75 184.834 440.962 185.795 440.102 186.738C439.534 187.361 438.61 188.148 437.474 188.34C436.504 188.505 435.543 188.221 434.517 187.919C434.206 187.828 433.895 187.736 433.574 187.654C431.688 187.178 429.93 187.663 428.484 189.054C427.394 190.098 426.735 191.517 426.103 192.881C425.627 193.898 425.142 194.951 424.483 195.802C423.055 197.67 421.581 197.203 419.713 196.626C419.228 196.47 418.715 196.315 418.193 196.196C416.527 195.82 414.604 196.406 412.929 197.789C411.775 198.741 410.823 199.94 409.907 201.094C408.122 203.346 406.437 205.47 403.462 205.644C403.27 205.653 403.132 205.836 403.142 206.047C403.151 206.248 403.297 206.413 403.48 206.413C403.48 206.413 403.489 206.413 403.499 206.413C406.758 206.221 408.616 203.877 410.42 201.607C411.317 200.48 412.242 199.309 413.341 198.402C414.87 197.139 416.591 196.608 418.074 196.937C418.568 197.047 419.063 197.203 419.539 197.349C421.388 197.926 423.302 198.521 425.014 196.287C425.719 195.372 426.222 194.273 426.717 193.22C427.348 191.856 427.953 190.565 428.941 189.613C430.223 188.386 431.77 187.956 433.446 188.377C433.748 188.45 434.059 188.542 434.361 188.633C435.405 188.945 436.485 189.256 437.593 189.073C438.637 188.899 439.672 188.276 440.596 187.26C441.466 186.308 442.263 185.337 443.022 184.404C445.577 181.291 447.783 178.59 451.812 177.409C451.995 177.354 452.105 177.143 452.059 176.942L452.041 176.96Z" stroke="white" stroke-miterlimit="10"/>
<path d="M491.867 174.186C489.495 174.909 487.335 176.008 485.43 177.391C481.695 180.101 478.967 183.928 477.557 188.231C476.229 192.314 476.092 196.818 477.428 201.24C477.465 201.369 477.511 201.497 477.557 201.625C479.021 206.148 481.841 209.865 485.43 212.465L498.175 194.923V173.243C496.087 173.243 493.963 173.545 491.867 174.186Z" fill="#404040" stroke="white" stroke-miterlimit="10"/>
<path d="M518.921 188.615C518.884 188.487 518.838 188.359 518.793 188.23C517.328 183.708 514.508 179.991 510.919 177.391L498.175 194.932L518.793 201.634C520.12 197.551 520.257 193.046 518.921 188.624V188.615Z" fill="#020202" stroke="white" stroke-linejoin="round"/>
<path d="M498.174 194.923L485.43 212.465C489.092 215.12 493.542 216.612 498.174 216.612C500.262 216.612 502.386 216.31 504.483 215.669C506.854 214.946 509.014 213.847 510.919 212.465C514.654 209.755 517.383 205.928 518.792 201.625L498.174 194.923Z" fill="#404040" stroke="white" stroke-miterlimit="10"/>
<path d="M198.903 272.817L199.104 279.07C196.239 280.187 193.611 281.854 191.377 283.978L185.811 281.158L181.453 287.384L186.012 291.65C184.776 294.47 184.09 297.509 184.016 300.595L178.093 302.536L179.411 310.025L185.664 309.823C186.781 312.689 188.448 315.317 190.572 317.551L187.752 323.117L193.977 327.475L198.244 322.916C201.064 324.152 204.103 324.838 207.189 324.911L209.13 330.835L216.619 329.517L216.417 323.264C219.283 322.147 221.91 320.48 224.144 318.356L229.711 321.176L234.069 314.95L229.509 310.684C230.745 307.864 231.432 304.825 231.505 301.739L237.429 299.798L236.111 292.309L229.857 292.511C228.74 289.645 227.074 287.017 224.95 284.783L227.77 279.217L221.544 274.859L217.278 279.418C214.458 278.182 211.418 277.496 208.333 277.422L206.392 271.499L198.903 272.817Z" fill="#404040" stroke="white" stroke-miterlimit="10"/>
<path d="M224.593 298.196C226.232 307.498 220.015 316.36 210.713 317.999C201.412 319.638 192.549 313.421 190.91 304.12C189.271 294.818 195.488 285.955 204.79 284.316C214.092 282.678 222.954 288.894 224.593 298.196Z" fill="#020202" stroke="white" stroke-miterlimit="10"/>
<path d="M462.597 281.075H392.585V303.204H462.597V281.075Z" fill="#202020" stroke="white" stroke-miterlimit="10"/>
<path d="M462.597 258.947H392.585V281.075H462.597V258.947Z" fill="#020202" stroke="white" stroke-miterlimit="10"/>
<path d="M462.597 239.73H392.585V261.858H462.597V239.73Z" fill="#202020" stroke="white" stroke-miterlimit="10"/>
<path d="M450.96 253.28C452.077 253.28 452.974 252.172 452.974 250.799C452.974 249.425 452.068 248.318 450.96 248.318C449.852 248.318 448.946 249.425 448.946 250.799C448.946 252.172 449.852 253.28 450.96 253.28Z" fill="#020202" stroke="white" stroke-miterlimit="10"/>
<path d="M450.96 273.943C452.077 273.943 452.974 272.836 452.974 271.462C452.974 270.089 452.068 268.981 450.96 268.981C449.852 268.981 448.946 270.089 448.946 271.462C448.946 272.836 449.852 273.943 450.96 273.943Z" fill="#020202" stroke="white" stroke-miterlimit="10"/>
<path d="M450.96 294.616C452.077 294.616 452.974 293.508 452.974 292.135C452.974 290.762 452.068 289.654 450.96 289.654C449.852 289.654 448.946 290.762 448.946 292.135C448.946 293.508 449.852 294.616 450.96 294.616Z" fill="#020202" stroke="white" stroke-miterlimit="10"/>
<path d="M402.07 250.799H439.369" stroke="white" stroke-miterlimit="10"/>
<path d="M402.07 271.471H439.369" stroke="white" stroke-miterlimit="10"/>
<path d="M402.07 292.153H439.369" stroke="white" stroke-miterlimit="10"/>
</svg>
